<?xml version="1.0" encoding="UTF-8"?>
<svg xmlns="http://www.w3.org/2000/svg" xmlns:xlink="http://www.w3.org/1999/xlink" viewBox="0 0 150 150" width="150px" height="150px">
<g id="surface79401247">
<path style=" stroke:none;fill-rule:nonzero;fill:rgb(100%,100%,100%);fill-opacity:1;" d="M 102.65625 16.40625 C 84.714844 16.40625 70.125 30.996094 70.125 48.9375 C 70.125 50.015625 70.394531 51.070312 70.5 52.125 C 48.316406 50.003906 28.699219 39.316406 15.375 22.96875 C 14.753906 22.183594 13.792969 21.761719 12.785156 21.832031 C 11.789062 21.902344 10.898438 22.476562 10.40625 23.34375 C 7.605469 28.160156 6 33.703125 6 39.65625 C 6 46.863281 8.578125 53.460938 12.5625 58.875 C 11.789062 58.535156 10.945312 58.347656 10.21875 57.9375 C 9.292969 57.445312 8.179688 57.46875 7.277344 58.007812 C 6.375 58.546875 5.824219 59.519531 5.8125 60.5625 L 5.8125 60.9375 C 5.8125 71.988281 11.53125 81.585938 19.96875 87.46875 C 19.875 87.457031 19.78125 87.492188 19.6875 87.46875 C 18.65625 87.292969 17.613281 87.65625 16.921875 88.441406 C 16.230469 89.226562 16.007812 90.316406 16.3125 91.3125 C 19.664062 101.730469 28.21875 109.6875 38.8125 112.59375 C 30.375 117.609375 20.589844 120.5625 10.03125 120.5625 C 7.746094 120.5625 5.554688 120.445312 3.375 120.1875 C 1.96875 120 0.621094 120.820312 0.152344 122.15625 C -0.328125 123.492188 0.199219 124.980469 1.40625 125.71875 C 14.941406 134.402344 31.007812 139.5 48.28125 139.5 C 76.277344 139.5 98.238281 127.804688 112.96875 111.09375 C 127.699219 94.382812 135.375 72.679688 135.375 52.40625 C 135.375 51.550781 135.304688 50.71875 135.28125 49.875 C 140.777344 45.667969 145.6875 40.734375 149.53125 34.96875 C 150.292969 33.855469 150.210938 32.367188 149.332031 31.335938 C 148.464844 30.304688 147 29.988281 145.78125 30.5625 C 144.234375 31.253906 142.429688 31.324219 140.8125 31.875 C 142.945312 29.027344 144.773438 25.957031 145.875 22.5 C 146.25 21.316406 145.839844 20.015625 144.867188 19.242188 C 143.894531 18.480469 142.535156 18.386719 141.46875 19.03125 C 136.347656 22.066406 130.675781 24.199219 124.6875 25.5 C 118.875 20.0625 111.222656 16.40625 102.65625 16.40625 Z M 102.65625 22.40625 C 110.308594 22.40625 117.222656 25.675781 122.0625 30.84375 C 122.789062 31.59375 123.855469 31.910156 124.875 31.6875 C 128.789062 30.914062 132.503906 29.777344 136.125 28.3125 C 134.039062 31.125 131.460938 33.527344 128.4375 35.34375 C 127.066406 36.011719 126.421875 37.59375 126.925781 39.035156 C 127.417969 40.464844 128.917969 41.296875 130.40625 40.96875 C 133.40625 40.605469 136.078125 39.386719 138.9375 38.625 C 136.371094 41.402344 133.558594 43.910156 130.5 46.125 C 129.667969 46.734375 129.210938 47.71875 129.28125 48.75 C 129.328125 49.96875 129.375 51.175781 129.375 52.40625 C 129.375 71.15625 122.179688 91.511719 108.46875 107.0625 C 94.757812 122.613281 74.625 133.5 48.28125 133.5 C 36.316406 133.5 25.019531 130.851562 14.8125 126.1875 C 27.46875 125.214844 39.140625 120.738281 48.5625 113.34375 C 49.546875 112.558594 49.933594 111.246094 49.535156 110.050781 C 49.136719 108.855469 48.035156 108.035156 46.78125 108 C 36.890625 107.824219 28.605469 102.070312 24.1875 93.9375 C 24.351562 93.9375 24.492188 93.9375 24.65625 93.9375 C 27.621094 93.9375 30.550781 93.5625 33.28125 92.8125 C 34.59375 92.425781 35.496094 91.207031 35.449219 89.835938 C 35.402344 88.464844 34.429688 87.292969 33.09375 87 C 22.417969 84.84375 14.414062 76.148438 12.5625 65.34375 C 15.585938 66.386719 18.679688 67.207031 22.03125 67.3125 C 23.402344 67.394531 24.644531 66.539062 25.066406 65.238281 C 25.488281 63.9375 24.972656 62.507812 23.8125 61.78125 C 16.6875 57.011719 12 48.890625 12 39.65625 C 12 36.234375 12.890625 33.09375 14.0625 30.09375 C 29.0625 46.558594 50.0625 57.492188 73.78125 58.6875 C 74.71875 58.734375 75.632812 58.347656 76.242188 57.632812 C 76.851562 56.90625 77.085938 55.945312 76.875 55.03125 C 76.417969 53.085938 76.125 51.023438 76.125 48.9375 C 76.125 34.242188 87.960938 22.40625 102.65625 22.40625 Z M 102.65625 22.40625 "/>
</g>
</svg>
